Coordinates
version=1
nRows=7
nColumns=40
inDegrees=yes

Units are S.I. units (second, meters, Newtons, ...)
Angles are in degrees.

endheader
time	pelvis_tilt	pelvis_list	pelvis_rotation	pelvis_tx	pelvis_ty	pelvis_tz	hip_flexion_r	hip_adduction_r	hip_rotation_r	knee_angle_r	knee_angle_r_beta	ankle_angle_r	subtalar_angle_r	mtp_angle_r	hip_flexion_l	hip_adduction_l	hip_rotation_l	knee_angle_l	knee_angle_l_beta	ankle_angle_l	subtalar_angle_l	mtp_angle_l	lumbar_extension	lumbar_bending	lumbar_rotation	arm_flex_r	arm_add_r	arm_rot_r	elbow_flex_r	pro_sup_r	wrist_flex_r	wrist_dev_r	arm_flex_l	arm_add_l	arm_rot_l	elbow_flex_l	pro_sup_l	wrist_flex_l	wrist_dev_l
     21.84492857	     -4.25919730	     -3.69221624	     10.58949978	      0.92906496	      0.91727520	      0.54278141	      5.14805047	      5.73636525	    -16.33513280	     18.99485463	     18.99485463	     19.99162386	     -8.37682812	      0.24695618	     29.79335722	     -6.01793692	      3.59105037	     22.81226870	     22.81226870	      5.33615376	     -8.02340741	      5.22964297	     -9.20656375	      2.44447328	      3.80132706	     43.60864909	    -17.63373239	     -6.98159829	    104.60326020	     43.98626426	      0.00000000	      0.00000000	    -14.02037844	    -10.87144064	      0.68868473	     26.93930569	     46.17699328	      0.00000000	      0.00000000
     21.86485714	     -4.34874069	     -3.80855378	     10.84038288	      0.92896760	      0.91625560	      0.54074226	      4.70154649	      5.83590191	    -16.49681713	     18.73546800	     18.73546800	     20.13364585	     -8.36627212	     -0.06805255	     29.49141253	     -6.01676587	      3.50507088	     22.67733426	     22.67733426	      3.63463336	     -8.64185725	      0.91856235	     -9.25964088	      2.26512258	      3.99964827	     43.85773445	    -17.71183842	     -6.77286047	    106.50266202	     44.05844989	      0.00000000	      0.00000000	    -13.74769125	    -10.30112348	     -1.98430086	     27.61268384	     46.56853069	      0.00000000	      0.00000000
     21.88478571	     -4.51471086	     -3.84980179	     11.09820838	      0.92877026	      0.91535145	      0.53846594	      4.43563557	      5.79889423	    -16.61007106	     18.69075834	     18.69075834	     20.34045919	     -8.47785214	     -0.10106781	     29.47966333	     -5.87615473	      3.55269157	     23.09633649	     23.09633649	      3.61793549	     -8.77184367	      0.82243073	     -9.16550237	      2.01544902	      4.05324456	     44.28342229	    -17.57820454	     -6.70183958	    106.69209302	     44.05470870	      0.00000000	      0.00000000	    -13.18931316	    -10.04037151	     -1.98801894	     27.86454247	     46.57701982	      0.00000000	      0.00000000
     21.90471429	     -4.55684206	     -4.02835288	     11.32133489	      0.92865386	      0.91444890	      0.53607620	      4.11638404	      5.89464493	    -16.73556789	     18.76884662	     18.76884662	     20.54842578	     -8.51265383	     -0.17881655	     29.61130361	     -5.86021636	      3.84272780	     23.98006768	     23.98006768	      3.69908403	     -9.28737689	      0.61918566	     -9.26816235	      1.99841924	      4.14298414	     44.86964642	    -17.45683633	     -6.59491665	    107.18156876	     44.04702457	      0.00000000	      0.00000000	    -12.58560857	     -9.74619947	     -2.15243549	     28.30525891	     46.60765167	      0.00000000	      0.00000000
     21.92464286	     -4.66526983	     -4.13743139	     11.54254697	      0.92865641	      0.91377603	      0.53342728	      3.83534607	      5.87101732	    -16.91402962	     18.83250962	     18.83250962	     20.67787372	     -8.48154122	     -0.25869489	     29.72150814	     -5.70367923	      4.26786165	     24.73062312	     24.73062312	      3.77069489	     -9.90863374	      0.59578141	     -9.27362404	      1.90423040	      4.26016092	     45.03200496	    -17.46689058	     -6.49423781	    107.52384034	     44.04796566	      0.00000000	      0.00000000	    -11.88855744	     -9.42071275	     -2.52412735	     29.09502982	     46.66666388	      0.00000000	      0.00000000
     21.94457143	     -4.79987958	     -4.12970792	     11.71824473	      0.92883267	      0.91350782	      0.53061697	      3.52715905	      5.71688111	    -16.98994893	     18.84963692	     18.84963692	     20.69193346	     -8.50884473	     -0.25314742	     29.66772046	     -5.47381817	      4.47348841	     25.20167492	     25.20167492	      3.92778696	    -10.11381622	      0.49078295	     -9.25285983	      1.68345779	      4.25903511	     45.02543331	    -17.27934354	     -6.38381878	    107.48835087	     44.04744350	      0.00000000	      0.00000000	    -10.99292187	     -9.09997394	     -2.53791040	     29.57416264	     46.68196798	      0.00000000	      0.00000000
     21.96450000	     -4.81587871	     -4.32661075	     11.80858989	      0.92906624	      0.91331394	      0.52770981	      3.14889566	      5.72924532	    -17.28705537	     18.93593536	     18.93593536	     20.71154066	     -8.07503819	     -0.42107205	     29.79047352	     -5.35257705	      5.19041572	     26.17400877	     26.17400877	      4.17871079	    -11.20599692	      0.85705703	     -9.31722774	      1.75990684	      4.72444164	     45.07316371	    -17.59929726	     -6.47558341	    107.13265215	     44.07445047	      0.00000000	      0.00000000	    -10.20071023	     -8.81206746	     -3.02810332	     30.89910916	     46.75701349	      0.00000000	      0.00000000
